#!OML:ASF E:\Steps\Project 1\Capture day 1\Session 2\Subject.ASF
:FULLY-SPECIFIED
:DEGREES
288
root 9.03917 13.0126 31.6616 -135.771 1.65353 181.212
lowerback -10.7232 -0.606753 -1.50124
upperback -1.11843 -0.481993 -0.549288
thorax 4.85529 -0.211401 0.206441
lowerneck 0.108628 -5.24286 -0.417263
upperneck -28.0487 -3.00247 6.3642
head -8.60651 -0.631405 2.25064
rclavicle 5.96354e-015 6.36111e-015
rhumerus -33.314 -3.55649 -83.0328
rradius 37.3341
rwrist -4.13123
rhand -12.7254 -51.2468
rfingers 7.12502
rthumb 13.3579 -80.7986
lclavicle 5.96354e-015 6.36111e-015
lhumerus -30.7153 -4.22924 78.8289
lradius 35.9583
lwrist 8.02503
lhand -30.1391 -13.1898
lfingers 7.12502
lthumb -3.45178 16.762
rfemur -82.6145 8.08934 18.9221
rtibia 82.2993
rfoot -43.6125 -9.77315
rtoes -34.0768
lfemur -85.4031 -4.101 -14.7314
ltibia 86.2908
lfoot -32.8201 -3.77145
ltoes -23.6513
289
root 9.0391 13.0897 31.5823 -135.213 2.59229 180.575
lowerback -12.4148 -0.7189 -2.50219
upperback -1.2875 -0.395715 -0.831274
thorax 5.62534 -0.171152 0.479151
lowerneck 0.303973 -5.10154 -0.453349
upperneck -28.1593 -2.81758 6.26141
head -8.68952 -0.535981 2.21549
rclavicle 7.95139e-016 0
rhumerus -33.2005 -0.513986 -84.335
rradius 41.5704
rwrist -5.91112
rhand -12.6489 -51.8919
rfingers 7.12502
rthumb 13.4317 -81.4388
lclavicle 7.95139e-016 0
lhumerus -30.1818 -6.14312 79.5648
lradius 38.0146
lwrist 8.79263
lhand -29.8491 -13.7855
lfingers 7.12502
lthumb -3.17172 16.1706
rfemur -82.7174 8.14469 17.7253
rtibia 81.9195
rfoot -43.4863 -10.3378
rtoes -34.6906
lfemur -84.9324 -4.16098 -15.8746
ltibia 85.3265
lfoot -32.6295 -3.53262
ltoes -23.1477
290
root 9.04215 13.2204 31.4942 -135.644 3.24191 179.795
lowerback -12.5098 -0.91051 -3.42423
upperback -1.54741 -0.472661 -1.10923
thorax 5.41331 -0.205376 0.696072
lowerneck -0.073597 -4.79678 0.147802
upperneck -27.441 -2.68252 5.30306
head -8.41179 -0.487354 1.76486
rclavicle 1.15295e-014 3.53837e-014
rhumerus -33.5705 2.23895 -85.4376
rradius 45.8335
rwrist -6.84313
rhand -13.2715 -51.5867
rfingers 7.12502
rthumb 12.8315 -81.1723
lclavicle 1.15295e-014 3.53837e-014
lhumerus -30.2799 -8.17862 80.0957
lradius 40.175
lwrist 9.08452
lhand -28.3589 -15.9944
lfingers 7.12502
lthumb -1.73252 13.9783
rfemur -81.4396 8.07758 16.7008
rtibia 81.0615
rfoot -42.8698 -11.7431
rtoes -37.1577
lfemur -83.0779 -4.52754 -17.0165
ltibia 83.8707
lfoot -32.3415 -2.04815
ltoes -28.5182
291
root 9.03745 13.375 31.4038 -136.92 3.04445 179.542
lowerback -11.5075 -1.04617 -3.26205
upperback -1.74026 -0.720861 -1.16836
thorax 4.66071 -0.312306 0.514709
lowerneck -0.323004 -4.72747 0.108971
upperneck -26.3821 -2.83389 5.17934
head -7.99826 -0.62136 1.73003
rclavicle -1.59028e-015 2.5842e-014
rhumerus -34.0816 4.636 -86.3755
rradius 49.9091
rwrist -7.25336
rhand -13.6533 -52.2832
rfingers 7.12502
rthumb 12.4634 -81.8916
lclavicle -1.59028e-015 2.5842e-014
lhumerus -30.6561 -10.4285 80.5322
lradius 42.4606
lwrist 8.41145
lhand -29.2083 -15.241
lfingers 7.12502
lthumb -2.55284 14.7234
rfemur -78.781 7.98264 16.7585
rtibia 79.5877
rfoot -42.0694 -12.3527
rtoes -37.6029
lfemur -80.3547 -5.06397 -17.2022
ltibia 82.3111
lfoot -31.7751 -1.67304
ltoes -28.6524
292
root 9.03211 13.5517 31.3009 -138.816 2.7514 179.881
lowerback -10.0208 -1.00524 -2.57944
upperback -1.7624 -0.842081 -1.0752
thorax 3.80722 -0.367916 0.229463
lowerneck -0.478166 -4.53289 0.141883
upperneck -25.3203 -2.8646 4.77473
head -7.6184 -0.68438 1.58443
rclavicle -2.78299e-015 1.86858e-014
rhumerus -34.5845 6.56388 -87.0039
rradius 53.7388
rwrist -7.15391
rhand -12.8015 -53.6434
rfingers 7.12502
rthumb 13.2846 -83.2
lclavicle -2.78299e-015 1.86858e-014
lhumerus -30.9306 -12.427 80.8825
lradius 44.3465
lwrist 6.91833
lhand -29.3543 -15.3958
lfingers 7.12502
lthumb -2.69392 14.5669
rfemur -75.042 8.29902 17.4653
rtibia 77.5459
rfoot -41.3517 -11.8677
rtoes -36.2737
lfemur -76.8196 -5.08606 -16.9126
ltibia 80.4052
lfoot -30.8712 -2.52922
ltoes -22.7382
